<svg width="277" height="277" viewBox="0 0 277 277" fill="none" xmlns="http://www.w3.org/2000/svg">
<path fill-rule="evenodd" clip-rule="evenodd" d="M138.5 276C214.439 276 276 214.439 276 138.5C276 62.5609 214.439 1 138.5 1C62.5609 1 1 62.5609 1 138.5C1 214.439 62.5609 276 138.5 276ZM220.433 170.553C220.433 170.553 220.432 170.553 221.372 168.787C222.311 167.022 222.31 167.021 222.31 167.021L222.318 167.025C222.328 167.03 222.345 167.039 222.368 167.051C222.416 167.075 222.491 167.113 222.593 167.163C222.797 167.262 223.105 167.407 223.506 167.581C224.309 167.929 225.477 168.392 226.91 168.835C229.791 169.727 233.661 170.515 237.755 170.2L238.062 174.188C235.645 174.374 233.321 174.229 231.204 173.914C216.931 211.19 180.763 237.741 138.5 237.741C96.1861 237.741 59.9618 211.142 45.7401 173.815C43.4587 174.197 40.9142 174.392 38.2565 174.188L38.5633 170.2C42.6578 170.515 46.5276 169.727 49.4086 168.835C50.8414 168.392 52.0092 167.929 52.8123 167.581C53.2134 167.407 53.522 167.262 53.7257 167.163C53.8275 167.113 53.9029 167.075 53.9504 167.051C53.9666 167.043 53.9795 167.036 53.9891 167.031L54.0005 167.025L54.0082 167.021C54.0082 167.021 54.0074 167.022 54.9471 168.787C55.8868 170.553 55.8857 170.553 55.8857 170.553L55.8816 170.555L55.8736 170.56L55.8491 170.572L55.8127 170.591L55.7669 170.615C55.6976 170.65 55.5994 170.699 55.4739 170.76C55.2229 170.882 54.8623 171.051 54.405 171.25C53.4913 171.646 52.1855 172.163 50.5911 172.657C50.2988 172.747 49.996 172.837 49.6836 172.925C63.4745 208.472 98.1024 233.741 138.5 233.741C178.819 233.741 213.375 208.553 227.234 173.089C226.706 172.949 226.203 172.804 225.728 172.657C224.133 172.163 222.827 171.646 221.914 171.25C221.456 171.051 221.096 170.882 220.845 170.76C220.719 170.699 220.621 170.65 220.552 170.615C220.517 170.597 220.49 170.583 220.47 170.572L220.445 170.56L220.433 170.553ZM104.125 146.428C116.303 146.428 126.175 125.63 126.175 99.9752C126.175 74.3201 116.303 53.5225 104.125 53.5225C91.9474 53.5225 82.0755 74.3201 82.0755 99.9752C82.0755 125.63 91.9474 146.428 104.125 146.428ZM172.875 146.428C185.053 146.428 194.925 125.63 194.925 99.9753C194.925 74.3202 185.053 53.5226 172.875 53.5226C160.697 53.5226 150.826 74.3202 150.826 99.9753C150.826 125.63 160.697 146.428 172.875 146.428Z" fill="#04B300" stroke="#04B300" stroke-miterlimit="10"/>
</svg>
