<svg width="1080" height="1080" viewBox="0 0 1080 1080" fill="none" xmlns="http://www.w3.org/2000/svg">
<rect width="1080" height="1080" rx="540" fill="white"/>
<path d="M674.455 697.84L593.908 540.833L666.867 459.653L593.908 364.564L754.295 365.148C826.346 365.148 862.372 396.649 862.372 459.653C862.372 502.258 834.324 537.543 778.23 565.508L890.008 718H807.593L700.257 564.275V534.418C762.767 523.725 794.022 499.462 794.022 461.627C794.022 435.636 779.382 422.64 750.101 422.64H660.531L593.908 565.508L660.531 717.102L674.455 697.84Z" fill="#6F1124"/>
<path d="M429.654 716.653V364.294H590.041C662.092 364.294 698.117 395.796 698.117 458.799C698.117 501.405 670.07 536.69 613.976 564.655L725.753 717.146H643.339L536.003 563.421V533.565C598.513 522.872 629.768 498.608 629.768 460.773C629.768 434.783 615.127 421.787 585.846 421.787H489.188V717.146L429.654 716.653Z" fill="black"/>
<path d="M190 716.834V363.983H255.389V509.565H429.347V363.983H494.736V716.834H429.347V566.317H255.389V716.834H190Z" fill="#6F1124"/>
</svg>
